<svg viewBox="0 0 152 52" width="152" height="52" aria-hidden="true">
  <path
    d="M.33 26.27c0-7.13 6.73-14.07 16.23-14.07 2.85 0 5 .86 6.77 1.9l-.68 6.52H21.1l-1.26-5.15a6.3 6.3 0 0 0-3.93-1.3c-5.5 0-9.71 5.59-9.71 12.53.03 5.8 2.88 8.64 6.83 8.64 1.66 0 3.03-.5 3.96-1.04l3.6-5.5h1.62l-2.05 6.65c-2.27 1-5.22 1.95-8.2 1.95C5.44 37.4.33 33.87.33 26.27ZM41.48 25.62c0 5.47-4.14 11.67-10.91 11.67-4.03 0-6.26-3-6.26-6.95 0-5.4 4.14-11.52 10.94-11.52 4.06 0 6.23 3.06 6.23 6.8M30.89 35.85c2.88 0 5.65-7.45 5.65-11.95 0-1.34-.25-3.64-1.76-3.64-2.95 0-5.58 7.7-5.58 12.02 0 1.62.25 3.57 1.7 3.57ZM45.94 22.31l-2.88-.6.14-.62s3.03-2.3 5.33-2.3q3.04.01 1.59 4.57l-1.23 3.85h.25c2.3-3.67 5.62-8.42 9.25-8.42 2.02 0 2.96.97 2.1 4.32l-2.7 10.69.1.03a8 8 0 0 0 3.5-3.06l.82.43c-1.12 2.85-4.54 6.09-6.98 6.09-1.7 0-2.67-1.26-1.91-4.1l2.56-9.58c.21-.87.18-1.37-.44-1.37-2.23 0-7.09 8.32-8.24 12.96l-.32 1.33-3.93.8-.79-.55zM75.75 37.29c-1.62 0-2.6-1.23-1.87-4.1l2.98-11.67h-5.72l-2.66 12.63C66.46 43.73 60.7 46.1 58.43 46.1c-1.62 0-3.02-1.11-3.02-2.55 0-1.22.97-2.2 2.27-2.56.79 1.62 1.69 2.96 2.7 2.96 1.11 0 1.87-1.59 2.55-5l3.53-17.4v-.03h-3.02l.32-1.98H67c2.48-7.41 9.29-9.65 11.34-9.65 1.26 0 2.2.36 2.84.83l2.95-.83-5.83 23.9.11.04c1.4-.54 2.6-1.7 3.53-3.06l.8.43c-1.09 2.81-4.5 6.09-7 6.09m-4.21-17.75h5.86L79 13.31a4.6 4.6 0 0 0-2.92-1.15c-1.22 0-3.06 1.05-4.53 7.38M83.89 21.67l.14-.58s2.84-2.34 5.15-2.34c2.08 0 2.73 1.22 1.87 4.54l-2.41 9.35c-.22.83-.11 1.2.28 1.2 1.73 0 7.24-8.72 8.1-12.5l.4-1.73 3.85-.82.76.54-3.57 14.47.11.03a8 8 0 0 0 3.5-3.06l.82.43c-1.11 2.81-4.5 6.09-7.02 6.09-1.73 0-2.6-1.3-1.69-4.29l1.44-4.78h-.18c-2.2 2.95-5.18 9.07-9.43 9.07-1.66 0-2.74-1.26-1.91-4.47l2.7-10.54zM103.32 31.85c0-4.75 2.78-8.57 6.05-10.87 1.84-1.3 4-2.16 5.8-2.16 2.26 0 3.49.97 3.49 2.88 0 3.67-5.54 6.37-10.44 7.13q-.06.7-.07 1.4c0 2.7.79 3.85 2.41 3.85 1.76 0 3.82-1.69 4.86-3.02l.83.65c-.94 1.8-3.93 5.58-8 5.58-3.41 0-4.93-2.49-4.93-5.44m5.15-4.39c3.1-.83 6.12-3.56 6.12-5.8 0-.64-.32-1.08-.9-1.08-1.8 0-4.32 3.1-5.22 6.88M122 22.31l-2.87-.6.14-.62s3.03-2.3 5.33-2.3q3.04.01 1.58 4.57l-1.22 3.85h.25c2.3-3.67 5.62-8.42 9.25-8.42 2.02 0 2.95.97 2.09 4.32l-2.7 10.69.1.03a8 8 0 0 0 3.5-3.06l.83.43c-1.12 2.85-4.54 6.09-6.99 6.09-1.69 0-2.66-1.26-1.9-4.1l2.55-9.58c.22-.87.18-1.37-.43-1.37-2.23 0-7.09 8.32-8.24 12.96l-.33 1.33-3.92.8-.8-.55zM142.02 37.4c-2.23 0-4.39-1.55-4.39-3.32 0-1.11.43-1.9 1.19-2.91h.14c1.98 2.12 3.86 3.85 5.73 3.85.97 0 1.58-.54 1.58-1.44 0-.83-.61-1.62-1.73-2.74l-1.76-1.76c-1.48-1.48-2.34-2.56-2.34-3.96 0-3.46 4.9-6.4 7.77-6.4 1.66 0 3.46 1.04 3.46 2.62 0 1.12-.47 2.2-1.04 2.99h-.18c-1.66-1.51-3.28-2.95-5.04-2.95-.9 0-1.48.54-1.48 1.33 0 .83.47 1.3 1.55 2.37l2.01 2.02c1.84 1.84 2.34 2.7 2.34 3.96 0 3.2-4.24 6.33-7.8 6.33Z"
    fill="currentColor"
  />
</svg>
