<svg viewBox="0 0 19 24" width="19" height="24">
  <path
    d="M10.36 8.43c-.82 0-1.14.6-1.14 1.1 0 .84.72 1.24 1.32 1.7-.38.54-.74 1.08-1.46 1.08-.32 0-1.08-.18-1.08-1.74 0-1.44 1.34-4.04 3.78-4 .92.02 1.58.44 2.28.88 1.7 1.1 2.14 1.4 2.64 1.4q.59.02.6-.78a4.4 4.4 0 0 0-.8-2.38c.34-.2.66-.34 1.08-.34.84.02 1.24.72 1.24 1.4 0 2.08-1.78 3.92-3.46 3.9-.74-.02-1.34-.36-2.18-.86-.68 5.4-3.66 8.62-7.74 8.62C2 18.41 0 16.31 0 13.21c0-3.7 2.72-6.48 4.76-6.48.52 0 .96.2 1.42.52C8.3 4.1 8.54 3.6 8.54 3.6h.38l.72.64-7.32 9.82a4.3 4.3 0 0 0 3.74 1.88c3.04 0 5.6-2.18 6.34-6.62-.8-.5-1.34-.88-2.04-.88M1.9 13.21l2.82-3.82c.02-.58-.36-1.16-1.04-1.16-.92 0-2.08 1-2.08 3.2q0 .97.3 1.78"
    fill="currentColor"
  />
</svg>
